<mxfile host="app.diagrams.net" modified="2023-02-28T07:45:03.274Z" agent="5.0 (Windows NT 10.0; Win64; x64) AppleWebKit/537.36 (KHTML, like Gecko) Chrome/100.0.4896.127 Safari/537.36" etag="0cBkhzGEHZDJVuqfsTu4" version="20.8.23" type="github">
  <diagram name="第 1 页" id="_M8ZL1Ko8VCCouYWpMQy">
    <mxGraphModel dx="2074" dy="2293" grid="1" gridSize="10" guides="1" tooltips="1" connect="1" arrows="1" fold="1" page="1" pageScale="1" pageWidth="827" pageHeight="1169" math="0" shadow="0">
      <root>
        <mxCell id="0" />
        <mxCell id="1" parent="0" />
        <mxCell id="KpultqX5-gvHgMGJJ4TB-1" value="" style="rounded=0;whiteSpace=wrap;html=1;strokeWidth=2;" vertex="1" parent="1">
          <mxGeometry x="10" y="-1150" width="780" height="950" as="geometry" />
        </mxCell>
        <mxCell id="KpultqX5-gvHgMGJJ4TB-55" value="" style="rounded=0;whiteSpace=wrap;html=1;strokeWidth=2;fontSize=12;fillColor=#f5f5f5;fontColor=#333333;strokeColor=#666666;" vertex="1" parent="1">
          <mxGeometry x="60" y="-1100" width="680" height="800" as="geometry" />
        </mxCell>
        <mxCell id="KpultqX5-gvHgMGJJ4TB-9" value="" style="rounded=0;whiteSpace=wrap;html=1;fontSize=12;strokeWidth=2;" vertex="1" parent="1">
          <mxGeometry x="104" y="-1050" width="586" height="130" as="geometry" />
        </mxCell>
        <mxCell id="KpultqX5-gvHgMGJJ4TB-4" value="&lt;font style=&quot;font-size: 14px;&quot;&gt;系统管理&lt;/font&gt;" style="rounded=1;whiteSpace=wrap;html=1;strokeWidth=2;" vertex="1" parent="1">
          <mxGeometry x="130" y="-990" width="100" height="40" as="geometry" />
        </mxCell>
        <mxCell id="KpultqX5-gvHgMGJJ4TB-5" value="&lt;font style=&quot;font-size: 14px;&quot;&gt;网络动态配置&lt;/font&gt;" style="rounded=1;whiteSpace=wrap;html=1;strokeWidth=2;" vertex="1" parent="1">
          <mxGeometry x="270" y="-990" width="100" height="40" as="geometry" />
        </mxCell>
        <mxCell id="KpultqX5-gvHgMGJJ4TB-6" value="&lt;font style=&quot;font-size: 14px;&quot;&gt;系统状态检测&lt;/font&gt;" style="rounded=1;whiteSpace=wrap;html=1;strokeWidth=2;" vertex="1" parent="1">
          <mxGeometry x="413.5" y="-990" width="100" height="40" as="geometry" />
        </mxCell>
        <mxCell id="KpultqX5-gvHgMGJJ4TB-7" value="&lt;font style=&quot;font-size: 14px;&quot;&gt;系统日志记录&lt;/font&gt;" style="rounded=1;whiteSpace=wrap;html=1;strokeWidth=2;" vertex="1" parent="1">
          <mxGeometry x="540" y="-990" width="100" height="40" as="geometry" />
        </mxCell>
        <mxCell id="KpultqX5-gvHgMGJJ4TB-11" value="管理平台子系统" style="text;html=1;strokeColor=none;fillColor=none;align=center;verticalAlign=middle;whiteSpace=wrap;rounded=0;fontSize=14;" vertex="1" parent="1">
          <mxGeometry x="105" y="-1040" width="150" height="30" as="geometry" />
        </mxCell>
        <mxCell id="KpultqX5-gvHgMGJJ4TB-14" value="" style="rounded=0;whiteSpace=wrap;html=1;fontSize=14;strokeWidth=2;" vertex="1" parent="1">
          <mxGeometry x="104" y="-880" width="156" height="240" as="geometry" />
        </mxCell>
        <mxCell id="KpultqX5-gvHgMGJJ4TB-15" value="动态变换子系统" style="text;html=1;strokeColor=none;fillColor=none;align=center;verticalAlign=middle;whiteSpace=wrap;rounded=0;fontSize=14;" vertex="1" parent="1">
          <mxGeometry x="100" y="-870" width="150" height="30" as="geometry" />
        </mxCell>
        <mxCell id="KpultqX5-gvHgMGJJ4TB-16" value="&lt;font style=&quot;font-size: 14px;&quot;&gt;网络逻辑切片&lt;/font&gt;" style="rounded=1;whiteSpace=wrap;html=1;strokeWidth=2;" vertex="1" parent="1">
          <mxGeometry x="130" y="-820" width="100" height="40" as="geometry" />
        </mxCell>
        <mxCell id="KpultqX5-gvHgMGJJ4TB-17" value="&lt;font style=&quot;font-size: 14px;&quot;&gt;通信指纹交换&lt;/font&gt;" style="rounded=1;whiteSpace=wrap;html=1;strokeWidth=2;" vertex="1" parent="1">
          <mxGeometry x="130" y="-770" width="100" height="40" as="geometry" />
        </mxCell>
        <mxCell id="KpultqX5-gvHgMGJJ4TB-18" value="&lt;font style=&quot;font-size: 14px;&quot;&gt;网络动态跃迁&lt;/font&gt;" style="rounded=1;whiteSpace=wrap;html=1;strokeWidth=2;" vertex="1" parent="1">
          <mxGeometry x="132" y="-720" width="100" height="40" as="geometry" />
        </mxCell>
        <mxCell id="KpultqX5-gvHgMGJJ4TB-19" value="" style="rounded=0;whiteSpace=wrap;html=1;fontSize=14;strokeWidth=2;" vertex="1" parent="1">
          <mxGeometry x="534.5" y="-880" width="156" height="240" as="geometry" />
        </mxCell>
        <mxCell id="KpultqX5-gvHgMGJJ4TB-20" value="&lt;font style=&quot;font-size: 14px;&quot;&gt;拓扑动态异构&lt;/font&gt;" style="rounded=1;whiteSpace=wrap;html=1;strokeWidth=2;" vertex="1" parent="1">
          <mxGeometry x="553.25" y="-690" width="118.5" height="40" as="geometry" />
        </mxCell>
        <mxCell id="KpultqX5-gvHgMGJJ4TB-21" value="&lt;font style=&quot;font-size: 14px;&quot;&gt;动态感知反制&lt;/font&gt;" style="rounded=1;whiteSpace=wrap;html=1;strokeWidth=2;" vertex="1" parent="1">
          <mxGeometry x="553.25" y="-740" width="118.5" height="40" as="geometry" />
        </mxCell>
        <mxCell id="KpultqX5-gvHgMGJJ4TB-22" value="&lt;font style=&quot;font-size: 14px;&quot;&gt;虚拟节点指纹跳变&lt;/font&gt;" style="rounded=1;whiteSpace=wrap;html=1;strokeWidth=2;" vertex="1" parent="1">
          <mxGeometry x="553.25" y="-790" width="118.5" height="40" as="geometry" />
        </mxCell>
        <mxCell id="KpultqX5-gvHgMGJJ4TB-24" value="动态节点虚拟子系统" style="text;html=1;strokeColor=none;fillColor=none;align=center;verticalAlign=middle;whiteSpace=wrap;rounded=0;fontSize=14;" vertex="1" parent="1">
          <mxGeometry x="540.5" y="-877" width="150" height="30" as="geometry" />
        </mxCell>
        <mxCell id="KpultqX5-gvHgMGJJ4TB-28" value="&lt;font style=&quot;font-size: 14px;&quot;&gt;虚拟节点生成&lt;/font&gt;" style="rounded=1;whiteSpace=wrap;html=1;strokeWidth=2;" vertex="1" parent="1">
          <mxGeometry x="554.25" y="-840" width="118.5" height="40" as="geometry" />
        </mxCell>
        <mxCell id="KpultqX5-gvHgMGJJ4TB-29" value="" style="endArrow=classic;startArrow=classic;html=1;rounded=0;fontSize=14;strokeWidth=2;" edge="1" parent="1" source="KpultqX5-gvHgMGJJ4TB-30" target="KpultqX5-gvHgMGJJ4TB-9">
          <mxGeometry width="50" height="50" relative="1" as="geometry">
            <mxPoint x="397" y="-730" as="sourcePoint" />
            <mxPoint x="439" y="-785" as="targetPoint" />
          </mxGeometry>
        </mxCell>
        <mxCell id="KpultqX5-gvHgMGJJ4TB-30" value="" style="rounded=0;whiteSpace=wrap;html=1;fontSize=12;strokeWidth=2;" vertex="1" parent="1">
          <mxGeometry x="105" y="-584" width="585" height="104" as="geometry" />
        </mxCell>
        <mxCell id="KpultqX5-gvHgMGJJ4TB-31" value="&lt;font style=&quot;font-size: 14px;&quot;&gt;网络地址管理&lt;/font&gt;" style="rounded=1;whiteSpace=wrap;html=1;strokeWidth=2;" vertex="1" parent="1">
          <mxGeometry x="130" y="-539" width="100" height="40" as="geometry" />
        </mxCell>
        <mxCell id="KpultqX5-gvHgMGJJ4TB-32" value="&lt;font style=&quot;font-size: 14px;&quot;&gt;网络动态映射&lt;/font&gt;" style="rounded=1;whiteSpace=wrap;html=1;strokeWidth=2;" vertex="1" parent="1">
          <mxGeometry x="340" y="-539" width="100" height="40" as="geometry" />
        </mxCell>
        <mxCell id="KpultqX5-gvHgMGJJ4TB-33" value="&lt;span style=&quot;font-size: 14px;&quot;&gt;网络状态感知&lt;/span&gt;" style="rounded=1;whiteSpace=wrap;html=1;strokeWidth=2;" vertex="1" parent="1">
          <mxGeometry x="563.5" y="-539" width="100" height="40" as="geometry" />
        </mxCell>
        <mxCell id="KpultqX5-gvHgMGJJ4TB-40" value="" style="edgeStyle=orthogonalEdgeStyle;rounded=0;orthogonalLoop=1;jettySize=auto;html=1;fontSize=12;strokeWidth=2;" edge="1" parent="1" source="KpultqX5-gvHgMGJJ4TB-34">
          <mxGeometry relative="1" as="geometry">
            <mxPoint x="179" y="-640" as="targetPoint" />
          </mxGeometry>
        </mxCell>
        <mxCell id="KpultqX5-gvHgMGJJ4TB-34" value="网络服务子系统" style="text;html=1;strokeColor=none;fillColor=none;align=center;verticalAlign=middle;whiteSpace=wrap;rounded=0;fontSize=14;" vertex="1" parent="1">
          <mxGeometry x="104" y="-583" width="150" height="38" as="geometry" />
        </mxCell>
        <mxCell id="KpultqX5-gvHgMGJJ4TB-41" value="" style="edgeStyle=orthogonalEdgeStyle;rounded=0;orthogonalLoop=1;jettySize=auto;html=1;fontSize=12;strokeWidth=2;" edge="1" parent="1">
          <mxGeometry relative="1" as="geometry">
            <mxPoint x="617" y="-585" as="sourcePoint" />
            <mxPoint x="617" y="-641" as="targetPoint" />
            <Array as="points">
              <mxPoint x="617" y="-611" />
              <mxPoint x="617" y="-611" />
            </Array>
          </mxGeometry>
        </mxCell>
        <mxCell id="KpultqX5-gvHgMGJJ4TB-42" value="服务支撑" style="text;html=1;strokeColor=none;fillColor=none;align=center;verticalAlign=middle;whiteSpace=wrap;rounded=0;fontSize=14;" vertex="1" parent="1">
          <mxGeometry x="96" y="-620" width="90" height="30" as="geometry" />
        </mxCell>
        <mxCell id="KpultqX5-gvHgMGJJ4TB-45" value="服务支撑" style="text;html=1;strokeColor=none;fillColor=none;align=center;verticalAlign=middle;whiteSpace=wrap;rounded=0;fontSize=14;" vertex="1" parent="1">
          <mxGeometry x="608" y="-620" width="90" height="30" as="geometry" />
        </mxCell>
        <mxCell id="KpultqX5-gvHgMGJJ4TB-46" value="" style="rounded=0;whiteSpace=wrap;html=1;fontSize=12;strokeWidth=2;" vertex="1" parent="1">
          <mxGeometry x="105.5" y="-425" width="585" height="104" as="geometry" />
        </mxCell>
        <mxCell id="KpultqX5-gvHgMGJJ4TB-47" value="" style="edgeStyle=orthogonalEdgeStyle;rounded=0;orthogonalLoop=1;jettySize=auto;html=1;fontSize=12;strokeWidth=2;" edge="1" parent="1">
          <mxGeometry relative="1" as="geometry">
            <mxPoint x="396" y="-426" as="sourcePoint" />
            <mxPoint x="396" y="-482" as="targetPoint" />
            <Array as="points">
              <mxPoint x="396" y="-452" />
              <mxPoint x="396" y="-452" />
            </Array>
          </mxGeometry>
        </mxCell>
        <mxCell id="KpultqX5-gvHgMGJJ4TB-48" value="底层支撑" style="text;html=1;strokeColor=none;fillColor=none;align=center;verticalAlign=middle;whiteSpace=wrap;rounded=0;fontSize=14;" vertex="1" parent="1">
          <mxGeometry x="390" y="-470" width="90" height="30" as="geometry" />
        </mxCell>
        <mxCell id="KpultqX5-gvHgMGJJ4TB-49" value="流量处理子系统" style="text;html=1;strokeColor=none;fillColor=none;align=center;verticalAlign=middle;whiteSpace=wrap;rounded=0;fontSize=14;" vertex="1" parent="1">
          <mxGeometry x="100" y="-423" width="150" height="38" as="geometry" />
        </mxCell>
        <mxCell id="KpultqX5-gvHgMGJJ4TB-50" value="&lt;font style=&quot;font-size: 14px;&quot;&gt;数据接收/发送&lt;/font&gt;" style="rounded=1;whiteSpace=wrap;html=1;strokeWidth=2;" vertex="1" parent="1">
          <mxGeometry x="122" y="-380" width="118" height="40" as="geometry" />
        </mxCell>
        <mxCell id="KpultqX5-gvHgMGJJ4TB-51" value="&lt;font style=&quot;font-size: 14px;&quot;&gt;队列调度&lt;/font&gt;" style="rounded=1;whiteSpace=wrap;html=1;strokeWidth=2;" vertex="1" parent="1">
          <mxGeometry x="262" y="-380" width="118" height="40" as="geometry" />
        </mxCell>
        <mxCell id="KpultqX5-gvHgMGJJ4TB-52" value="&lt;font style=&quot;font-size: 14px;&quot;&gt;地址学习&lt;/font&gt;" style="rounded=1;whiteSpace=wrap;html=1;strokeWidth=2;" vertex="1" parent="1">
          <mxGeometry x="402" y="-380" width="123" height="40" as="geometry" />
        </mxCell>
        <mxCell id="KpultqX5-gvHgMGJJ4TB-54" value="&lt;font style=&quot;font-size: 14px;&quot;&gt;流量镜像&lt;/font&gt;" style="rounded=1;whiteSpace=wrap;html=1;strokeWidth=2;" vertex="1" parent="1">
          <mxGeometry x="550" y="-380" width="122.75" height="40" as="geometry" />
        </mxCell>
        <mxCell id="KpultqX5-gvHgMGJJ4TB-56" value="动态交换机" style="text;html=1;strokeColor=none;fillColor=none;align=center;verticalAlign=middle;whiteSpace=wrap;rounded=0;fontSize=14;" vertex="1" parent="1">
          <mxGeometry x="60" y="-1094" width="150" height="30" as="geometry" />
        </mxCell>
        <mxCell id="KpultqX5-gvHgMGJJ4TB-57" value="" style="endArrow=classic;startArrow=classic;html=1;rounded=0;strokeWidth=2;fontSize=12;entryX=1;entryY=0.5;entryDx=0;entryDy=0;exitX=0;exitY=0.5;exitDx=0;exitDy=0;" edge="1" parent="1" source="KpultqX5-gvHgMGJJ4TB-19" target="KpultqX5-gvHgMGJJ4TB-14">
          <mxGeometry width="50" height="50" relative="1" as="geometry">
            <mxPoint x="310" y="-760" as="sourcePoint" />
            <mxPoint x="360" y="-810" as="targetPoint" />
          </mxGeometry>
        </mxCell>
        <mxCell id="KpultqX5-gvHgMGJJ4TB-58" value="&lt;font style=&quot;font-size: 14px;&quot;&gt;内网&lt;/font&gt;" style="rounded=0;whiteSpace=wrap;html=1;strokeWidth=2;fontSize=12;fillColor=#f5f5f5;fontColor=#333333;strokeColor=#666666;" vertex="1" parent="1">
          <mxGeometry x="60" y="-275" width="320" height="45" as="geometry" />
        </mxCell>
        <mxCell id="KpultqX5-gvHgMGJJ4TB-59" value="&lt;font style=&quot;font-size: 14px;&quot;&gt;外网&lt;/font&gt;" style="rounded=0;whiteSpace=wrap;html=1;strokeWidth=2;fontSize=12;fillColor=#f5f5f5;fontColor=#333333;strokeColor=#666666;" vertex="1" parent="1">
          <mxGeometry x="420" y="-275" width="320" height="45" as="geometry" />
        </mxCell>
        <mxCell id="KpultqX5-gvHgMGJJ4TB-61" value="系统架构" style="text;html=1;strokeColor=none;fillColor=none;align=center;verticalAlign=middle;whiteSpace=wrap;rounded=0;fontSize=14;" vertex="1" parent="1">
          <mxGeometry y="-1140" width="150" height="30" as="geometry" />
        </mxCell>
      </root>
    </mxGraphModel>
  </diagram>
</mxfile>
